# xmcd
#
# Track frame offsets:
# 150
# 17514
# 37671
# 57701
# 77795
# 98511
# 115936
# 133414
# 152241
# 169227
# 195988
# 216851
# 245721
# 267791
# 287686
# 306830
# 325735
# 347609
#
# Disc length: 4672 seconds
#
#
# Revision: 0
# Processed by: cddbd v1.5.1PL0 Copyright (c) Steve Scherf et al.
# Submitted via: FreeRIP 2.931 
#
DISCID=fd123e12
DTITLE=David Sedaris - Dress Your Family In Corduroy And Denim - CD5
DYEAR=2004
DGENRE=
TTITLE0=A Can Of Worms-1
TTITLE1=A Can Of Worms-2
TTITLE2=Chicken In The Henhouse-1
TTITLE3=Chicken In The Henhouse-2
TTITLE4=Chicken In The Henhouse-3
TTITLE5=Chicken In The Henhouse-4
TTITLE6=Chicken In The Henhouse-5
TTITLE7=Who's The Chef?-1
TTITLE8=Who's The Chef?-2
TTITLE9=Baby Einstein-1
TTITLE10=Baby Einstein-2
TTITLE11=Baby Einstein-3
TTITLE12=Baby Einstein-4
TTITLE13=Nuit Of The Living Dead-1
TTITLE14=Nuit Of The Living Dead-2
TTITLE15=Nuit Of The Living Dead-3
TTITLE16=Nuit Of The Living Dead-4
TTITLE17=Nuit Of The Living Dead-5
EXTD=
EXTT0=
EXTT1=
EXTT2=
EXTT3=
EXTT4=
EXTT5=
EXTT6=
EXTT7=
EXTT8=
EXTT9=
EXTT10=
EXTT11=
EXTT12=
EXTT13=
EXTT14=
EXTT15=
EXTT16=
EXTT17=
PLAYORDER=
